<svg xmlns="http://www.w3.org/2000/svg">
    <symbol id="ARROW_DOWN" viewBox="0 0 24 24" fill="currentColor">
        <path d="M12 15.0006L7.75732 10.758L9.17154 9.34375L12 12.1722L14.8284 9.34375L16.2426 10.758L12 15.0006Z"></path>
    </symbol>

    <symbol id="ARROW_RIGHT_DOWN" viewBox="0 0 24 24" fill="currentColor">
        <path d="M14.5895 16.0032L5.98291 7.39664L7.39712 5.98242L16.0037 14.589V7.00324H18.0037V18.0032H7.00373V16.0032H14.5895Z"></path>
    </symbol>

    <symbol id="ARROW_RIGHT_UP" viewBox="0 0 24 24" fill="currentColor">
        <path d="M16.0037 9.41421L7.39712 18.0208L5.98291 16.6066L14.5895 8H7.00373V6H18.0037V17H16.0037V9.41421Z"></path>
    </symbol>

    <symbol id="DASHBOARD" viewBox="0 0 24 24" fill="currentColor">
        <path d="M3 13H11V3H3V13ZM3 21H11V15H3V21ZM13 21H21V11H13V21ZM13 3V9H21V3H13Z"></path>
    </symbol>

    <symbol id="NEWS" viewBox="0 0 24 24" fill="currentColor">
        <path d="M19 22H5C3.34315 22 2 20.6569 2 19V3C2 2.44772 2.44772 2 3 2H17C17.5523 2 18 2.44772 18 3V15H22V19C22 20.6569 20.6569 22 19 22ZM18 17V19C18 19.5523 18.4477 20 19 20C19.5523 20 20 19.5523 20 19V17H18ZM6 7V9H14V7H6ZM6 11V13H14V11H6ZM6 15V17H11V15H6Z"></path>
    </symbol>

    <symbol id="CLOSE" viewBox="0 0 24 24" stroke-width="1.5" fill="none" stroke="currentColor">
        <path stroke-linecap="round" stroke-linejoin="round" d="M6 18L18 6M6 6l12 12" />
    </symbol>
</svg>