<svg xmlns="http://www.w3.org/2000/svg">
    <symbol id="ARROW_DOWN" viewBox="0 0 24 24" fill="currentColor">
        <path d="M12 15.0006L7.75732 10.758L9.17154 9.34375L12 12.1722L14.8284 9.34375L16.2426 10.758L12 15.0006Z"></path>
    </symbol>

    <symbol id="ARROW_RIGHT_DOWN" viewBox="0 0 24 24" fill="currentColor">
        <path d="M14.5895 16.0032L5.98291 7.39664L7.39712 5.98242L16.0037 14.589V7.00324H18.0037V18.0032H7.00373V16.0032H14.5895Z"></path>
    </symbol>

    <symbol id="ARROW_RIGHT_UP" viewBox="0 0 24 24" fill="currentColor">
        <path d="M16.0037 9.41421L7.39712 18.0208L5.98291 16.6066L14.5895 8H7.00373V6H18.0037V17H16.0037V9.41421Z"></path>
    </symbol>

    <symbol id="DASHBOARD" viewBox="0 0 24 24" fill="currentColor">
        <path d="M3 13H11V3H3V13ZM3 21H11V15H3V21ZM13 21H21V11H13V21ZM13 3V9H21V3H13Z"></path>
    </symbol>

    <symbol id="NEWS" viewBox="0 0 24 24" fill="currentColor">
        <path d="M19 22H5C3.34315 22 2 20.6569 2 19V3C2 2.44772 2.44772 2 3 2H17C17.5523 2 18 2.44772 18 3V15H22V19C22 20.6569 20.6569 22 19 22ZM18 17V19C18 19.5523 18.4477 20 19 20C19.5523 20 20 19.5523 20 19V17H18ZM6 7V9H14V7H6ZM6 11V13H14V11H6ZM6 15V17H11V15H6Z"></path>
    </symbol>

    <symbol id="CLOSE" viewBox="0 0 24 24" stroke-width="1.5" fill="none" stroke="currentColor">
        <path stroke-linecap="round" stroke-linejoin="round" d="M6 18L18 6M6 6l12 12" />
    </symbol>

    <symbol id="SEARCH" viewBox="0 0 24 24" fill="currentColor">
        <path d="M18.031 16.6168L22.3137 20.8995L20.8995 22.3137L16.6168 18.031C15.0769 19.263 13.124 20 11 20C6.032 20 2 15.968 2 11C2 6.032 6.032 2 11 2C15.968 2 20 6.032 20 11C20 13.124 19.263 15.0769 18.031 16.6168ZM16.0247 15.8748C17.2475 14.6146 18 12.8956 18 11C18 7.1325 14.8675 4 11 4C7.1325 4 4 7.1325 4 11C4 14.8675 7.1325 18 11 18C12.8956 18 14.6146 17.2475 15.8748 16.0247L16.0247 15.8748Z"></path>
    </symbol>

    <symbol id="CHECK" viewBox="0 0 24 24" fill="currentColor">
        <path d="M9.9997 15.1709L19.1921 5.97852L20.6063 7.39273L9.9997 17.9993L3.63574 11.6354L5.04996 10.2212L9.9997 15.1709Z"></path>
    </symbol>

    <symbol id="ANALYTICS" viewBox="0 0 24 24" fill="currentColor">
        <path d="M5 3V19H21V21H3V3H5ZM19.9393 5.93934L22.0607 8.06066L16 14.1213L13 11.121L9.06066 15.0607L6.93934 12.9393L13 6.87868L16 9.879L19.9393 5.93934Z"></path>
    </symbol>
</svg>